<?xml version="1.0" encoding="UTF-8" standalone="no"?>
<!-- Created with Inkscape (http://www.inkscape.org/) -->

<svg
   version="1.1"
   id="svg2"
   xml:space="preserve"
   width="417.69275"
   height="934.02893"
   viewBox="0 0 417.69275 934.02893"
   xmlns="http://www.w3.org/2000/svg"
   xmlns:svg="http://www.w3.org/2000/svg"><defs
     id="defs6"><clipPath
       clipPathUnits="userSpaceOnUse"
       id="clipPath16"><path
         d="M 0,768 H 512 V 0 H 0 Z"
         id="path14" /></clipPath></defs><g
     id="g8"
     transform="matrix(1.3333333,0,0,-1.3333333,-92.69239,980.02376)"><g
       id="g10"><g
         id="g12"
         clip-path="url(#clipPath16)"><g
           id="g18"
           transform="translate(212.3101,701.5352)" /><g
           id="g22"
           transform="translate(250.4146,630.9858)" /><g
           id="g26"
           transform="translate(336.269,527.9478)" /><g
           id="g30"
           transform="translate(203.2056,616.1104)"><path
             id="path32"
             style="color:#000000;fill:#d83d15;stroke-miterlimit:10;-inkscape-stroke:none"
             d="m 77.425781,-328.62109 c -3.910633,0.1961 -7.496706,0.84629 -10.785156,1.90625 -13.153801,4.23984 -20.62548,15.11552 -24.117188,27.13086 -1.431693,4.9266 -2.149778,10.09122 -2.537109,15.24414 -6.199691,-12.82061 -14.766328,-21.7796 -24.427734,-27.48047 -17.3668355,-10.2476 -37.323632,-10.61695 -51.701172,-8.66016 -8.025531,1.09257 -18.77352,5.76136 -30.685547,13.5957 -11.912027,7.83435 -24.802674,18.88984 -36.095705,32.94727 -22.58606,28.11486 -38.70175,68.53707 -26.65234,118.00391 12.01787,49.33946 41.562604,74.561312 67.91992,86.988278 26.357316,12.426965 49.839844,12.412109 49.839844,12.412109 h 0.345703 l 0.339844,-0.06055 c 9.0641947,-1.578886 17.1086143,-4.116544 24.398437,-7.296875 -10.50625,19.186077 -24.268803,34.518802 -42.335937,42.853516 l -0.31836,0.146484 -0.287109,0.199219 c 0,0 -2.122476,1.464468 -4.304688,3.630859 -2.182211,2.166391 -4.891945,4.975397 -5.171875,9.3398439 -0.139964,2.1822237 0.741864,4.7204349 2.496094,6.484375 1.75423,1.76394003 4.109211,2.903403 7.146485,3.7578125 6.074547,1.7088188 15.210771,2.3095809 29.73828075,1.4726562 l -0.4609375,-7.9882812 C -14.31793,-3.182567 -22.914854,-3.9343531 -27.341797,-5.1796875 c -2.213471,-0.6226672 -3.30056,-1.3592351 -3.638672,-1.6992187 -0.338112,-0.3399837 -0.198332,-0.1307417 -0.185547,-0.3300782 0.02557,-0.3986729 1.200435,-2.5618163 2.824219,-4.1738286 1.571667,-1.560272 3.026795,-2.577328 3.125,-2.646484 23.0958436,-10.843442 39.391006,-31.345498 50.839844,-56.3125 9.773101,-6.229986 17.590723,-13.98692 23.654297,-22.751953 12.312355,-17.79779 17.593367,-39.45462 19.0625,-60.61328 1.469133,-21.15867 -0.87924,-41.88134 -4.144532,-58.0918 -1.632645,-8.10523 -3.494234,-15.07711 -5.255859,-20.44726 -1.761625,-5.37015 -3.008503,-8.80127 -5.050781,-11.33985 -0.287414,-0.35732 -1.665656,-3.06909 -2.722656,-6.70898 -1.057001,-3.6399 -2.04985,-8.36273 -2.710938,-13.59961 -1.322176,-10.47376 -1.278536,-23.03552 1.75,-33.45703 3.028536,-10.42152 8.618887,-18.43718 18.890625,-21.74805 10.271738,-3.31087 26.158719,-1.8371 49.640627,9.38672 23.64528,11.30154 37.55143,22.12368 45.02344,31.62109 7.472,9.49741 8.71842,17.45308 7.41015,24.4375 -2.61654,13.96885 -17.05805,24.42752 -19.9414,26.4375 -3.04614,2.12292 -3.87991,5.29305 -4.48047,8.54102 -0.60057,3.24796 -0.73098,6.87386 -0.64258,10.49219 0.008,0.32517 0.0557,0.5838 0.0664,0.90625 -5.06039,-1.84686 -11.25063,-2.77256 -18.85546,-2.53516 -10.33161,0.32252 -17.45413,1.30758 -22.42578,2.92773 -2.48583,0.81008 -4.47305,1.76046 -6.076177,3.19141 -1.603129,1.43095 -2.780804,3.67525 -2.679687,5.91602 0.202233,4.48153 3.507731,6.90854 7.078124,9.01953 3.56995,2.11072 8.10576,3.83122 13.11133,5.06445 9.95843,2.45357 19.49196,2.55769 26.67383,1.35742 3.59093,-0.60013 6.57777,-1.47261 8.99609,-2.87695 0.95699,-0.55573 1.82147,-1.27067 2.58984,-2.17773 1.67738,7.9662 -1.38537,18.50978 -4.58203,24.39257 l -0.31836,0.58399 -0.11132,0.6582 c 0,0 -4.5e-4,0.0799 -0.26563,0.45313 -0.26518,0.37324 -0.50725,0.77729 -1.88281,0.9707 -2.75113,0.38682 -11.16056,-1.42309 -27.49414,-14.55664 l -0.11719,-0.0937 -0.12305,-0.0859 c 0,0 -5.70972,-3.92881 -12.85351,-7.76172 -7.143797,-3.8329 -15.358888,-7.94612 -22.878909,-7.36914 l -10.285156,0.79102 8.128906,6.34961 c 0,0 8.844098,6.84497 18.851559,23.00781 0.14271,0.25666 6.92395,12.4457 15.2168,24.34766 4.1902,6.0138 8.71941,11.91848 13.16016,16.26562 2.22037,2.17357 4.40114,3.9762 6.76367,5.20703 2.36252,1.23083 5.26808,1.98777 8.10937,0.85156 l -2.9707,-7.42773 c 0.11805,-0.0472 -0.21863,0.12048 -1.44336,-0.51758 -1.22472,-0.63806 -2.97652,-1.98309 -4.86328,-3.83008 -3.77353,-3.69398 -8.15444,-9.32636 -12.19336,-15.12304 -8.07783,-11.59337 -14.88086,-23.82227 -14.88086,-23.82227 l -0.0469,-0.082 -0.0488,-0.0801 c -3.65626,-5.90515 -7.07982,-10.33608 -10.226564,-14.11328 1.978256,0.86221 3.961054,1.59409 5.824214,2.59375 6.70195,3.59584 12.10352,7.30469 12.10352,7.30469 16.86103,13.51368 26.46224,17.0392 33.38086,16.0664 3.47756,-0.48896 6.00142,-2.44466 7.29101,-4.25976 0.86597,-1.21884 1.21745,-2.26138 1.41211,-2.9668 3.97153,-7.47621 7.77759,-19.22075 5.05469,-30.29883 -1.13174,-4.60445 -3.66231,-9.0135 -7.67773,-12.47656 -0.20599,-1.98986 -0.46379,-3.92464 -0.51367,-5.9668 -0.0799,-3.26878 0.0748,-6.47911 0.51171,-8.84179 0.43688,-2.36269 1.39114,-3.57552 1.1875,-3.4336 2.80164,-1.95301 19.80852,-13.25872 23.23047,-31.52734 1.71098,-9.13431 -0.37741,-19.91492 -8.98633,-30.85742 -8.60891,-10.94251 -23.5312,-22.26465 -47.85937,-33.89258 -18.36828,-8.77962 -33.029818,-12.27776 -44.761719,-11.68945 z M -24.328125,-313.375 c 11.417259,-0.1969 24.50091643,1.76496 35.822266,8.44531 15.095132,8.90714 27.704893,26.04014 30.003906,59.77344 2.34056,34.34292 1.540983,83.03471 -8.417969,126.77539 -3.444935,15.13049 -8.069004,29.520556 -13.898437,42.625001 -8.633149,5.115331 -18.92246872,9.004904 -31.34375,11.207031 -0.950292,-0.0057 -21.93175,-0.244468 -46.082032,-11.630859 -24.708882,-11.649761 -52.099489,-34.601043 -63.558589,-81.646483 -11.42857,-46.91806 3.69379,-84.43397 25.117183,-111.10156 10.711699,-13.3338 23.017769,-23.88166 34.253906,-31.27149 11.235126,-7.38916 21.58643,-11.56604 27.367188,-12.35351 3.308608,-0.45031 6.930575,-0.75664 10.736328,-0.82227 z m 74.283203,80.04688 c 0.466656,1.16311 0.910942,2.13771 1.382813,3.57617 1.641976,5.00541 3.440477,11.71342 5.015625,19.5332 3.150295,15.63957 5.408848,35.75099 4.005859,55.95703 -1.402989,20.20605 -6.473379,40.4445 -17.660156,56.615236 -3.15517,4.560869 -6.851453,8.770871 -11.042969,12.634765 3.690568,-10.121113 6.751932,-20.731561 9.224609,-31.591801 9.117118,-40.04326 10.52788,-82.97809 9.074219,-116.7246 z m 77.611332,31.51171 c 9.13086,-0.28503 15.22526,1.29164 19.27148,3.61914 0.31564,2.46687 0.75332,4.33854 1.20703,6.02344 -0.0547,0.0362 -10e-4,0.004 -0.0684,0.043 -1.03242,0.59954 -3.32981,1.41038 -6.29687,1.90625 -5.93412,0.99173 -14.60786,0.94009 -23.44141,-1.23633 -4.38917,-1.08123 -8.3421,-2.63868 -10.95508,-4.18359 -1.83203,-1.08319 -2.48282,-1.90038 -2.80468,-2.24219 0.43742,-0.33233 1.24876,-0.85753 2.89062,-1.39258 3.66546,-1.19449 10.28339,-2.22763 20.19727,-2.53711 z m 23.4423,42.7749 -6.73242,4.32422 c 8.26137,12.86384 5.75605,21.78752 0.94336,29.12696 -2.40635,3.66971 -5.52546,6.79097 -8.31641,9.21484 -2.79094,2.42387 -4.96314,3.8369 -6.60547,5.4082 -2.25678,2.15919 -2.65353,4.75307 -2.87695,7.23047 -0.22342,2.4774 -0.0715,5.049095 0.19141,7.460939 0.52574,4.823687 1.56445,9.058594 1.56445,9.058594 l 7.77344,-1.890625 c 0,0 -0.92776,-3.842103 -1.38477,-8.035157 -0.2285,-2.096527 -0.32089,-4.267891 -0.17578,-5.876951 0.14511,-1.60907 0.73074,-2.44471 0.43945,-2.16602 0.32318,-0.3092 3.20199,-2.44024 6.32032,-5.14843 3.11833,-2.7082 6.76699,-6.30512 9.75976,-10.86915 5.98555,-9.12805 8.80423,-22.72675 -0.90039,-37.83789 z m -69.938382,56.23136 c -1.922433,0.20425 -3.87156,0.73565 -5.814453,1.66016 -7.220389,3.43604 -10.985111,9.21413 -11.105469,15.0625 -0.120358,5.848368 2.608745,11.23362 5.882813,16.011718 6.548134,9.556197 16.08789,17.0625 16.08789,17.0625 l 0.626953,0.501953 0.773438,0.21875 c 13.18269,3.744252 23.17108,3.710716 30.76563,1.070313 7.59454,-2.640403 12.48377,-7.95286 15.26562,-13.507813 2.67456,-5.340721 3.59836,-10.91271 3.88672,-15.320312 6.86359,5.036531 11.48076,9.873902 14.13281,14.324219 3.392,5.691992 3.9165,10.65343 2.54102,15.757812 -2.75097,10.208763 -14.62417,21.197343 -30.69727,30.900391 v 0.002 c -34.438059,20.790648 -61.757159,68.55 -70.531249,94.152296 -3.957941,11.55042 -11.13798,21.381011 -18.939453,27.753903 -7.801473,6.3729 -16.051243,9.03797 -21.916015,7.69141 -0.609466,-0.13998 -0.676392,-0.12422 -1.117188,-1.26758 -0.440796,-1.14335 -0.74491,-3.36729 -0.626953,-6.25586 0.235915,-5.777131 1.970319,-14.098746 4.3125,-23.134763 C 19.282034,61.801413 26.31585,40.978928 27.744156,27.262119 29.216327,13.123502 21.810926,4.40683 14.406266,0.365634 7.908703,-3.1805 2.11009,-3.718331 0.584,-3.831631 c -4.637025,-2.396803 -7.317624,-4.448097 -8.433594,-5.72461 -0.590921,-0.67593 -0.370078,-0.477447 -0.427734,-0.628906 4.436365,3.225495 9.212941,4.244892 12.947266,4.107422 4.657674,-0.17146 8.11914,-1.84375 8.11914,-1.84375 l -0.15625,0.07031 c 9.63463,-4.142529 15.978621,-4.377323 20.035156,-3.109375 4.056535,1.267947 6.40314,4.025833 8.066407,7.720703 3.326533,7.389738 2.496093,17.705078 2.496093,17.705078 l 7.957032,0.820312 c 0,0 1.425505,-11.628053 -3.158203,-21.810547 -2.291855,-5.091246 -6.438999,-10.027482 -12.97461,-12.070312 -6.53561,-2.04283 -14.881181,-1.206432 -25.582031,3.394531 l -0.07813,0.03516 -0.07813,0.03711 c 0,0 -1.972588,0.947351 -4.941406,1.05664 -2.968819,0.10929 -6.474757,-0.500077 -10.039063,-4.304687 l -1.833984,-1.958984 -2.507813,0.955078 c 0,0 -5.022275,1.202826 -6.423828,6.566406 -0.700776,2.68179 0.282258,5.921864 2.556641,8.523437 2.274382,2.601574 5.776794,5.073777 11.294922,7.861328 l 0.753906,0.38086 0.845703,0.04297 c 0,0 6.024158,0.375281 11.552734,3.3925778 5.528577,3.0172972 10.391717,7.7255172 9.212891,19.0468752 -1.222691,11.742165 -8.144216,32.954461 -12.933594,51.43164 -2.394689,9.23859 -4.276821,17.820646 -4.5625,24.816404 -0.142839,3.49788 0.0639,6.62756 1.15625,9.46094 1.092347,2.83338 3.579985,5.44803 6.791016,6.18555 9.418213,2.16243 19.727318,-1.90813 28.767578,-9.29297 9.04027,-7.38484 16.985225,-18.333917 21.447276,-31.355473 8.067893,-23.541654 35.815781,-71.0131715 67.097659,-89.898437 16.78686,-10.133932 30.49533,-21.596756 34.28711,-35.667969 1.89589,-7.035606 0.93336,-14.673052 -3.39453,-21.935547 -4.3279,-7.262495 -11.80418,-14.259507 -22.97266,-21.259764 l -7.17578,-4.49805 1.08398,8.39844 c 0,0 0.38509,4.769883 -0.48047,10.326171 l -0.64648,-0.25 c -1.47124,3.817916 -2.96507,5.80638 -3.76172,6.435547 -0.79665,0.629167 -0.63601,0.563639 -1.5625,0.214844 -1.85297,-0.69759 -6.22219,-5.132793 -10.69141,-10.666016 -4.46921,-5.533226 -9.43643,-11.984586 -15.394528,-16.552736 -4.468575,-3.42611 -10.004184,-5.74945 -15.771484,-5.13672 z m 1.078125,7.8086 c 3.311072,-0.43947 6.290099,0.96658 9.826172,3.67773 4.714764,3.61487 9.514785,9.629079 14.039065,15.23047 4.52427,5.601391 8.37231,10.970312 14.0957,13.125 0.61042,0.229805 1.27797,0.35856 1.95313,0.453125 -1.69236,1.527395 -3.75821,2.817037 -6.40235,3.736328 -5.40936,1.88068 -13.47514,2.167579 -25.150389,-1.02539 -0.934198,-0.766487 -8.622242,-7.126318 -13.876953,-14.794922 -2.789302,-4.070643 -4.546923,-8.284909 -4.484375,-11.324221 0.06255,-3.03931 1.150824,-5.43696 6.544922,-8.0039 1.210729,-0.57612 2.351388,-0.92773 3.455078,-1.07422 z m -108.829109,-486.61271 -0.996094,2.53711 c -16.964093,43.18355 -18.868053,88.82316 -12.291016,128.26367 6.577038,39.44051 21.483374,72.69251 39.1523441,91.53125 8.4432279,9.00248 15.8700619,16.59071 21.0078129,23.75781 5.137751,7.1671 7.972836,13.70576 7.955078,21.25781 -0.03552,15.10412 -12.429583,36.22643 -48.650391,71.94336 -37.085403,36.569 -50.471156,74.67012 -52.933594,110.21485 -2.462437,35.54472 5.774128,68.53226 11.267579,95.57812 11.379638,56.02934 74.459557,93.991721 76.560546,95.244143 0.424942,0.494101 8.303208,9.693332 12.304688,19.968749 2.054917,5.276832 2.899002,10.551399 1.693359,14.675782 -1.205643,4.124383 -4.179041,7.728566 -12.013672,10.376956 -16.4390434,5.55668 -38.763763,6.21874 -56.916015,-1.72852 -15.049668,-6.588912 -27.351295,-18.829782 -32.28711,-39.662108 4.541578,4.948692 10.337695,10.701463 17.611329,16.085937 16.674701,12.34383 40.50201,22.226531 65.976562,10.634766 l -3.3125,-7.28125 C -14.79015,91.903386 -35.01053,83.434869 -50.456047,72.000972 -65.901563,60.567075 -75.702141,46.450191 -75.702141,46.450191 l -8.25,-11.931641 0.96875,14.472656 c 2.146094,32.087941 18.778369,51.388984 39.236329,60.345704 20.457959,8.95672 44.3936718,8.15887 62.683593,1.97656 9.530352,-3.2216 15.176756,-9.02614 17.13086,-15.710936 C 38.021495,88.917741 36.565953,81.980676 34.151375,75.780269 29.322218,63.379455 20.145516,53.102534 20.145516,53.102534 l -0.408203,-0.466796 -0.53125,-0.31836 c 0,0 -63.023863,-38.685539 -73.535157,-90.439458 -5.548538,-27.31707 -13.48026,-59.46413 -11.126953,-93.43359 2.353308,-33.96945 14.764788,-69.76338 50.570313,-105.07031 36.670119,-36.16 50.987969,-58.38474 51.033203,-77.62109 0.02262,-9.61818 -3.761356,-17.99756 -9.453125,-25.9375 -5.69177,-7.93995 -13.306073,-15.64831 -21.6738284,-24.57032 -15.9539956,-17.01022 -30.7269566,-49.17183 -37.0976566,-87.375 -6.137801,-36.80654 -4.480305,-79.19005 10.248047,-119.42968 l 20.703125,113.34375 16.869141,-111.57422 v 33.52539 h 37.910156 v -37.34961 h 3.945313 l 0.21875,37.5039 h 37.976562 v -45 h -8 v 37 H 65.770516 l -0.21875,-37.5039 H 45.653328 v 37.34961 H 23.743172 v -37.34961 H 9.4404375 l -11.3105465,74.80273 -13.66211,-74.80273 z" /></g></g></g></g></svg>
